<svg version="1.1" id="Layer_1" xmlns="http://www.w3.org/2000/svg" xmlns:xlink="http://www.w3.org/1999/xlink" x="0px" y="0px"
	 width="100%" viewBox="0 0 200 200" enable-background="new 0 0 200 200" xml:space="preserve">
<path fill="#3A2A8C" opacity="1.000000" stroke="none" 
	d="
M122.000000,201.000000 
	C81.358452,201.000000 41.216900,201.000000 1.037675,201.000000 
	C1.037675,134.400162 1.037675,67.800285 1.037675,1.100206 
	C67.558044,1.100206 134.116287,1.100206 200.837265,1.100206 
	C200.837265,67.666344 200.837265,134.333145 200.837265,201.000000 
	C174.800568,201.000000 148.650284,201.000000 122.000000,201.000000 
M109.660904,117.885551 
	C134.508682,129.830826 159.292450,117.122269 170.723022,91.673187 
	C165.492706,88.991203 160.252029,86.303902 154.921875,83.570717 
	C153.901825,85.086571 153.269974,86.051476 152.612564,86.998657 
	C140.575851,104.341263 126.207283,107.131981 108.517380,95.660713 
	C103.638733,92.497086 98.778236,89.237434 93.617897,86.590073 
	C81.980743,80.619987 69.955803,79.158760 57.588909,84.580116 
	C45.057964,90.073380 37.480530,100.311562 30.751192,112.037949 
	C36.309555,114.895607 41.564430,117.597237 46.942600,120.362251 
	C47.967148,118.962730 48.742393,117.915482 49.505558,116.859512 
	C62.217159,99.270798 75.340446,96.796951 93.551697,108.414757 
	C98.587906,111.627579 103.829224,114.518890 109.660904,117.885551 
M103.762009,163.812286 
	C131.822723,180.377899 157.748459,167.862289 170.896591,140.629791 
	C165.666138,137.934845 160.427322,135.235565 155.053146,132.466553 
	C153.638489,134.411118 152.441162,135.972900 151.331863,137.594894 
	C141.427185,152.077225 127.040558,155.393616 111.870758,146.554382 
	C107.571480,144.049271 103.487305,141.177994 99.248856,138.564880 
	C89.543083,132.581024 79.236916,128.661835 67.590149,130.534225 
	C49.595959,133.427048 39.344692,145.813126 30.777679,160.885696 
	C36.295219,163.743881 41.546837,166.464310 47.027336,169.303314 
	C48.533409,167.105484 49.818550,165.197723 51.136082,163.312622 
	C60.285599,150.221619 74.845451,146.694489 88.806992,154.405380 
	C93.741089,157.130463 98.390320,160.371338 103.762009,163.812286 
M80.515732,51.619572 
	C87.645332,55.479004 95.045578,58.915123 101.858025,63.270615 
	C132.543839,82.889366 159.835297,66.146599 170.610458,41.056953 
	C165.503220,38.425926 160.382278,35.787853 154.965759,32.997509 
	C153.467880,35.183365 152.181229,37.088432 150.867065,38.974331 
	C141.747238,52.061867 127.690147,55.595219 113.639908,48.084064 
	C108.962288,45.583443 104.606186,42.481804 100.100418,39.659214 
	C89.209854,32.836945 77.718643,28.675850 64.625320,31.730379 
	C48.111881,35.582783 38.759392,47.523830 30.753267,61.500710 
	C36.298817,64.340126 41.565590,67.036804 47.095779,69.868347 
	C54.816803,57.636681 63.970947,48.515247 80.515732,51.619572 
z"/>
<path fill="#FCFCFD" opacity="1.000000" stroke="none" 
	d="
M109.318665,117.721634 
	C103.829224,114.518890 98.587906,111.627579 93.551697,108.414757 
	C75.340446,96.796951 62.217159,99.270798 49.505558,116.859512 
	C48.742393,117.915482 47.967148,118.962730 46.942600,120.362251 
	C41.564430,117.597237 36.309555,114.895607 30.751192,112.037949 
	C37.480530,100.311562 45.057964,90.073380 57.588909,84.580116 
	C69.955803,79.158760 81.980743,80.619987 93.617897,86.590073 
	C98.778236,89.237434 103.638733,92.497086 108.517380,95.660713 
	C126.207283,107.131981 140.575851,104.341263 152.612564,86.998657 
	C153.269974,86.051476 153.901825,85.086571 154.921875,83.570717 
	C160.252029,86.303902 165.492706,88.991203 170.723022,91.673187 
	C159.292450,117.122269 134.508682,129.830826 109.318665,117.721634 
z"/>
<path fill="#FCFCFD" opacity="1.000000" stroke="none" 
	d="
M103.465805,163.594513 
	C98.390320,160.371338 93.741089,157.130463 88.806992,154.405380 
	C74.845451,146.694489 60.285599,150.221619 51.136082,163.312622 
	C49.818550,165.197723 48.533409,167.105484 47.027336,169.303314 
	C41.546837,166.464310 36.295219,163.743881 30.777679,160.885696 
	C39.344692,145.813126 49.595959,133.427048 67.590149,130.534225 
	C79.236916,128.661835 89.543083,132.581024 99.248856,138.564880 
	C103.487305,141.177994 107.571480,144.049271 111.870758,146.554382 
	C127.040558,155.393616 141.427185,152.077225 151.331863,137.594894 
	C152.441162,135.972900 153.638489,134.411118 155.053146,132.466553 
	C160.427322,135.235565 165.666138,137.934845 170.896591,140.629791 
	C157.748459,167.862289 131.822723,180.377899 103.465805,163.594513 
z"/>
<path fill="#FCFCFD" opacity="1.000000" stroke="none" 
	d="
M80.108025,51.496193 
	C63.970947,48.515247 54.816803,57.636681 47.095779,69.868347 
	C41.565590,67.036804 36.298817,64.340126 30.753267,61.500710 
	C38.759392,47.523830 48.111881,35.582783 64.625320,31.730379 
	C77.718643,28.675850 89.209854,32.836945 100.100418,39.659214 
	C104.606186,42.481804 108.962288,45.583443 113.639908,48.084064 
	C127.690147,55.595219 141.747238,52.061867 150.867065,38.974331 
	C152.181229,37.088432 153.467880,35.183365 154.965759,32.997509 
	C160.382278,35.787853 165.503220,38.425926 170.610458,41.056953 
	C159.835297,66.146599 132.543839,82.889366 101.858025,63.270615 
	C95.045578,58.915123 87.645332,55.479004 80.108025,51.496193 
z"/>
</svg>