<svg version="1.1" id="Layer_1" xmlns="http://www.w3.org/2000/svg" xmlns:xlink="http://www.w3.org/1999/xlink" x="0px" y="0px"
	 width="100%" viewBox="0 0 3000 2000" enable-background="new 0 0 3000 2000" xml:space="preserve">
<path fill="#47704C" opacity="1.000000" stroke="none" 
	d="
M2136.000000,2002.000000 
	C1424.000000,2002.000000 713.000000,2002.000000 2.000000,2002.000000 
	C2.000000,1335.333374 2.000000,668.666687 2.000000,2.000000 
	C1002.000000,2.000000 2002.000000,2.000000 3002.000000,2.000000 
	C3002.000000,668.666687 3002.000000,1335.333374 3002.000000,2002.000000 
	C2713.666748,2002.000000 2425.333252,2002.000000 2136.000000,2002.000000 
M930.597351,1274.313232 
	C940.431152,1276.017822 950.299377,1277.547363 960.089233,1279.474976 
	C970.312561,1281.488159 975.468811,1291.799438 971.222900,1301.110474 
	C963.484924,1318.079712 955.449097,1334.922729 948.136475,1352.073730 
	C940.946838,1368.936157 949.463501,1381.780151 967.618164,1381.582642 
	C985.579956,1381.387329 1003.559387,1380.866943 1021.478943,1379.693726 
	C1028.751465,1379.217773 1033.268799,1381.773071 1037.543945,1387.158569 
	C1041.233398,1391.806152 1040.464355,1396.399902 1039.315308,1401.314941 
	C1035.298096,1418.497803 1031.086426,1435.637329 1027.273560,1452.865356 
	C1023.077576,1471.825195 1034.070190,1482.861816 1053.089233,1478.727051 
	C1070.005005,1475.049194 1086.825317,1470.930908 1103.675781,1466.956421 
	C1118.467773,1463.467285 1126.751099,1470.455933 1126.094116,1485.422363 
	C1125.291260,1503.703857 1124.481201,1522.004395 1124.489258,1540.296265 
	C1124.495972,1555.674438 1136.467285,1563.734741 1151.174316,1559.074829 
	C1153.701416,1558.274170 1156.104004,1557.059937 1158.527344,1555.955811 
	C1173.983276,1548.913818 1189.486694,1541.971069 1204.841187,1534.713745 
	C1209.118042,1532.692017 1212.689209,1532.584229 1217.079346,1534.591797 
	C1223.094116,1537.342285 1226.281250,1541.172241 1227.234985,1547.931519 
	C1229.745239,1565.722534 1232.708740,1583.457642 1235.885376,1601.144287 
	C1239.199219,1619.594238 1254.627808,1625.720581 1270.036621,1614.826172 
	C1284.451904,1604.634399 1298.824463,1594.373047 1312.966187,1583.808105 
	C1318.261597,1579.852051 1323.126831,1578.792969 1329.508789,1581.175781 
	C1334.055176,1582.873291 1336.580811,1585.213623 1338.203247,1589.691528 
	C1344.556274,1607.223877 1351.261475,1624.628174 1357.762451,1642.107422 
	C1359.800415,1647.586914 1362.663940,1652.333740 1368.100220,1655.019165 
	C1376.215210,1659.027710 1384.845215,1657.771851 1391.804443,1650.581299 
	C1404.998779,1636.948242 1417.916870,1623.041016 1430.681152,1609.003418 
	C1434.130493,1605.210083 1437.745239,1603.491577 1442.844116,1603.640869 
	C1449.034180,1603.822021 1453.310425,1605.976685 1456.604736,1611.572266 
	C1465.559937,1626.783569 1474.976196,1641.726807 1484.398926,1656.656860 
	C1486.500610,1659.986938 1488.904785,1663.457153 1491.987427,1665.775391 
	C1501.575684,1672.986450 1514.166382,1670.100098 1521.219849,1659.065308 
	C1530.907104,1643.909668 1540.168335,1628.482300 1549.706909,1613.230591 
	C1557.501709,1600.767212 1567.985962,1600.043335 1577.733398,1610.744629 
	C1589.615234,1623.788574 1602.270996,1636.149902 1613.771484,1649.512695 
	C1624.758667,1662.278809 1644.716431,1657.638062 1649.541260,1641.999268 
	C1654.833984,1624.843994 1661.895874,1608.230713 1668.289551,1591.420288 
	C1672.776733,1579.622803 1683.174683,1576.381592 1693.488892,1583.656860 
	C1707.915405,1593.832886 1722.213989,1604.190308 1736.560425,1614.479614 
	C1752.449829,1625.875488 1767.711304,1619.889526 1771.380615,1600.801758 
	C1771.631714,1599.495361 1771.711060,1598.156738 1771.926270,1596.842285 
	C1774.670044,1580.090942 1777.376831,1563.333374 1780.192139,1546.594116 
	C1781.984009,1535.940308 1792.544189,1530.517578 1802.486938,1535.044189 
	C1810.367432,1538.631592 1818.215210,1542.291504 1826.114746,1545.836060 
	C1836.140747,1550.334717 1846.005615,1555.292603 1856.302612,1559.061646 
	C1868.928833,1563.682983 1881.884033,1556.169189 1882.076782,1543.833740 
	C1882.383545,1524.201904 1882.010986,1504.523438 1880.934082,1484.919067 
	C1880.240112,1472.282349 1888.404297,1463.748413 1900.748779,1466.337158 
	C1907.914307,1467.839600 1914.982544,1469.801025 1922.113037,1471.477173 
	C1933.457275,1474.144043 1944.738159,1477.177368 1956.189575,1479.268799 
	C1971.987427,1482.154053 1982.083130,1472.353882 1980.250854,1456.344482 
	C1979.685303,1451.402588 1978.487183,1446.517334 1977.348145,1441.660156 
	C1973.927490,1427.073120 1970.252441,1412.544556 1966.956909,1397.930054 
	C1965.081909,1389.615601 1972.477661,1379.855469 1980.774536,1379.828979 
	C1991.425659,1379.795044 2002.078979,1380.337524 2012.730713,1380.654785 
	C2023.034302,1380.961670 2033.354614,1381.824829 2043.635620,1381.483276 
	C2055.588623,1381.086060 2063.633545,1370.159790 2061.115479,1358.508789 
	C2060.351318,1354.972046 2058.817383,1351.557495 2057.315918,1348.231445 
	C2050.327393,1332.751831 2043.342041,1317.268433 2036.094849,1301.909424 
	C2033.941528,1297.346069 2033.656738,1293.395020 2035.772705,1288.629761 
	C2038.328125,1282.874268 2041.925293,1279.866455 2048.292236,1278.939575 
	C2066.731445,1276.255249 2085.122559,1273.202759 2103.476074,1269.974487 
	C2119.641846,1267.130981 2126.038086,1252.321533 2117.356934,1238.323242 
	C2115.429199,1235.214722 2113.210449,1232.283447 2111.069336,1229.311035 
	C2102.114258,1216.877563 2093.052246,1204.520142 2084.196289,1192.016602 
	C2077.346436,1182.345215 2080.787109,1171.782104 2092.022461,1167.524902 
	C2109.151367,1161.034668 2126.107178,1154.004028 2143.503906,1148.328491 
	C2158.585205,1143.408325 2163.239990,1123.926514 2150.783691,1113.068359 
	C2136.989258,1101.043823 2124.084473,1088.004761 2110.604248,1075.612183 
	C2101.359375,1067.113647 2102.169922,1056.385376 2112.986084,1049.499023 
	C2118.886719,1045.742188 2124.866943,1042.110840 2130.810059,1038.420654 
	C2140.998047,1032.094727 2151.398926,1026.083008 2161.317627,1019.359802 
	C2173.748047,1010.934021 2173.589111,994.539124 2161.365723,985.734497 
	C2159.476562,984.373596 2157.464355,983.180176 2155.481689,981.953857 
	C2140.749512,972.842224 2125.936523,963.858459 2111.301758,954.593018 
	C2102.897217,949.272034 2101.918945,937.383606 2109.048340,930.819519 
	C2114.679199,925.635254 2120.424072,920.572510 2125.990479,915.320618 
	C2134.952881,906.864990 2144.135986,898.608459 2152.625977,889.696289 
	C2162.370361,879.467224 2159.084473,864.173218 2146.319336,858.110413 
	C2143.617920,856.827393 2140.773682,855.835449 2137.965820,854.788086 
	C2122.363525,848.967834 2106.797852,843.042358 2091.115723,837.444885 
	C2086.287598,835.721558 2083.655518,832.898438 2081.953613,828.006836 
	C2079.861816,821.995911 2080.739990,817.383179 2084.524658,812.323059 
	C2095.695312,797.387939 2106.773193,782.359558 2117.236816,766.926636 
	C2126.366211,753.461426 2120.413086,739.294983 2104.670166,735.361877 
	C2103.057617,734.958984 2101.435059,734.569763 2099.795898,734.303955 
	C2082.384277,731.480164 2064.968750,728.677429 2047.552856,725.879944 
	C2037.488037,724.263184 2031.590698,713.755249 2035.679443,704.404724 
	C2039.281738,696.166687 2043.181641,688.059265 2046.842896,679.846436 
	C2051.450195,669.511963 2056.637451,659.366821 2060.318848,648.706360 
	C2064.863281,635.546082 2056.642090,623.855591 2042.886963,623.847290 
	C2023.597412,623.835693 2004.287109,624.437500 1985.025024,625.494690 
	C1973.288574,626.138733 1964.711548,617.168335 1967.343018,605.515686 
	C1969.690186,595.122009 1972.367065,584.802612 1974.699341,574.405823 
	C1976.810303,564.994812 1979.435547,555.604248 1980.418823,546.058838 
	C1981.700806,533.616150 1973.878296,525.759583 1961.471680,525.754456 
	C1957.845825,525.752930 1954.142578,526.179077 1950.606812,526.986816 
	C1933.404907,530.916382 1916.284180,535.205811 1899.060669,539.034363 
	C1889.348755,541.193054 1880.062866,532.268677 1880.488159,522.494995 
	C1881.355957,502.552948 1882.133911,482.589508 1882.151489,462.634155 
	C1882.162964,449.568451 1870.338379,441.602386 1857.777832,445.396332 
	C1853.971069,446.546204 1850.316284,448.252930 1846.676758,449.893127 
	C1831.798950,456.597870 1816.978638,463.430359 1802.088257,470.106628 
	C1792.556519,474.380432 1782.036987,468.922760 1780.210815,458.848694 
	C1779.320435,453.936035 1778.602173,448.992462 1777.776855,444.067749 
	C1775.357178,429.630188 1773.440308,415.083221 1770.351318,400.789856 
	C1767.143066,385.943787 1753.230713,380.377411 1740.246826,388.013550 
	C1738.242432,389.192474 1736.381714,390.621490 1734.486816,391.980011 
	C1720.410400,402.072418 1706.247192,412.047791 1692.329224,422.354309 
	C1688.119751,425.471497 1684.290039,425.891846 1679.344971,424.415558 
	C1673.712769,422.734131 1670.354614,419.781555 1668.381226,414.135620 
	C1663.327759,399.678192 1657.736694,385.408630 1652.356201,371.065582 
	C1651.303467,368.258728 1650.008789,365.521240 1649.205688,362.645630 
	C1644.704712,346.530365 1624.217041,343.317230 1614.108521,355.094299 
	C1601.976807,369.228516 1588.561890,382.253937 1576.125000,396.137817 
	C1572.062500,400.672913 1567.815430,402.370758 1562.077759,401.363281 
	C1557.303101,400.524933 1553.737549,398.652832 1551.003418,394.054718 
	C1541.130737,377.451355 1531.018555,360.970734 1520.396362,344.839020 
	C1512.034424,332.139648 1495.758545,332.268372 1486.866211,344.547791 
	C1485.110352,346.972229 1483.569214,349.555847 1481.989136,352.103394 
	C1473.209717,366.257568 1464.584839,380.509979 1455.632446,394.553741 
	C1449.932861,403.494568 1438.468262,404.090515 1431.313599,396.218994 
	C1426.388184,390.800110 1421.448608,385.391785 1416.409180,380.079376 
	C1407.928833,371.139252 1399.681152,361.945129 1390.752075,353.472717 
	C1380.388916,343.639343 1365.271973,346.799957 1359.117920,359.583191 
	C1357.965698,361.976562 1357.112915,364.517761 1356.181519,367.013000 
	C1350.241943,382.925385 1344.228394,398.811218 1338.450684,414.782288 
	C1336.881348,419.120209 1334.606445,421.878357 1330.053223,423.686462 
	C1323.388794,426.332977 1318.248901,425.267487 1312.625854,421.019318 
	C1298.542847,410.379486 1284.182373,400.096375 1269.734009,389.953705 
	C1254.281860,379.106323 1238.904785,385.563171 1235.773804,404.070801 
	C1232.776001,421.790436 1230.119873,439.569092 1226.998413,457.266235 
	C1224.782349,469.830597 1215.100342,474.814362 1203.673096,469.619629 
	C1187.301270,462.177246 1171.059204,454.441132 1154.583374,447.238770 
	C1137.345947,439.703583 1124.214233,448.224548 1124.420410,466.913239 
	C1124.618408,484.875153 1125.404907,502.834137 1126.152222,520.785278 
	C1126.697144,533.872864 1118.169312,541.358459 1105.596436,538.418396 
	C1091.980225,535.234375 1078.413330,531.830444 1064.756714,528.833374 
	C1058.286011,527.413269 1051.671631,525.988892 1045.095459,525.851196 
	C1033.043579,525.598938 1025.267334,534.361267 1026.312134,546.497925 
	C1026.737305,551.435791 1028.099731,556.309937 1029.233765,561.166809 
	C1032.716309,576.082458 1036.528564,590.925171 1039.759399,605.894165 
	C1042.190552,617.158264 1033.555176,626.081726 1022.416321,625.517944 
	C1003.148071,624.542664 983.845703,623.894226 964.555237,623.827881 
	C951.458008,623.782837 943.761902,633.645813 946.004944,646.523987 
	C946.567444,649.753418 947.883850,652.914795 949.243469,655.931702 
	C956.358459,671.720154 963.609863,687.447021 970.792297,703.205078 
	C975.794800,714.180481 970.025024,724.378113 957.970398,726.227539 
	C940.536560,728.902344 923.106873,731.618225 905.723328,734.596130 
	C901.873962,735.255493 897.765930,736.387268 894.568176,738.499390 
	C884.601501,745.082703 882.746704,756.985657 890.058472,767.461182 
	C900.733887,782.755615 911.878723,797.721741 922.632324,812.962585 
	C929.515259,822.717712 926.221069,833.361450 915.146729,837.572021 
	C898.024963,844.081848 880.780029,850.271362 863.706665,856.903931 
	C846.896606,863.434265 843.454407,878.956482 856.220703,891.585388 
	C868.999878,904.226990 882.196350,916.455627 895.429138,928.627014 
	C906.013184,938.362183 905.011597,948.911621 892.519104,956.571594 
	C877.751953,965.626343 862.963379,974.651550 848.348450,983.947937 
	C832.072388,994.300964 832.365540,1011.222290 848.735657,1021.345154 
	C864.601624,1031.156250 880.487061,1040.939941 896.210510,1050.975952 
	C903.907410,1055.888672 904.785339,1067.877441 898.137329,1074.134766 
	C892.079773,1079.836182 885.766113,1085.265137 879.695190,1090.952759 
	C871.432495,1098.693604 863.227661,1106.498901 855.121643,1114.403442 
	C848.416443,1120.942017 847.087646,1128.717285 850.716614,1137.262329 
	C853.078674,1142.824219 857.567261,1145.942505 863.182190,1147.997803 
	C880.694336,1154.407959 898.066101,1161.204468 915.614014,1167.512329 
	C920.846130,1169.393188 923.536255,1172.489624 925.258789,1177.751953 
	C927.162354,1183.567139 925.809082,1187.956787 922.455872,1192.562256 
	C911.672363,1207.373047 901.376709,1222.548340 890.307373,1237.138794 
	C879.537292,1251.334839 889.586914,1269.185669 904.223633,1270.221191 
	C912.487976,1270.805908 920.654541,1272.773315 930.597351,1274.313232 
z"/>
<path fill="#000000" opacity="1.000000" stroke="none" 
	d="
M929.731262,1274.215576 
	C920.654541,1272.773315 912.487976,1270.805908 904.223633,1270.221191 
	C889.586914,1269.185669 879.537292,1251.334839 890.307373,1237.138794 
	C901.376709,1222.548340 911.672363,1207.373047 922.455872,1192.562256 
	C925.809082,1187.956787 927.162354,1183.567139 925.258789,1177.751953 
	C923.536255,1172.489624 920.846130,1169.393188 915.614014,1167.512329 
	C898.066101,1161.204468 880.694336,1154.407959 863.182190,1147.997803 
	C857.567261,1145.942505 853.078674,1142.824219 850.716614,1137.262329 
	C847.087646,1128.717285 848.416443,1120.942017 855.121643,1114.403442 
	C863.227661,1106.498901 871.432495,1098.693604 879.695190,1090.952759 
	C885.766113,1085.265137 892.079773,1079.836182 898.137329,1074.134766 
	C904.785339,1067.877441 903.907410,1055.888672 896.210510,1050.975952 
	C880.487061,1040.939941 864.601624,1031.156250 848.735657,1021.345154 
	C832.365540,1011.222290 832.072388,994.300964 848.348450,983.947937 
	C862.963379,974.651550 877.751953,965.626343 892.519104,956.571594 
	C905.011597,948.911621 906.013184,938.362183 895.429138,928.627014 
	C882.196350,916.455627 868.999878,904.226990 856.220703,891.585388 
	C843.454407,878.956482 846.896606,863.434265 863.706665,856.903931 
	C880.780029,850.271362 898.024963,844.081848 915.146729,837.572021 
	C926.221069,833.361450 929.515259,822.717712 922.632324,812.962585 
	C911.878723,797.721741 900.733887,782.755615 890.058472,767.461182 
	C882.746704,756.985657 884.601501,745.082703 894.568176,738.499390 
	C897.765930,736.387268 901.873962,735.255493 905.723328,734.596130 
	C923.106873,731.618225 940.536560,728.902344 957.970398,726.227539 
	C970.025024,724.378113 975.794800,714.180481 970.792297,703.205078 
	C963.609863,687.447021 956.358459,671.720154 949.243469,655.931702 
	C947.883850,652.914795 946.567444,649.753418 946.004944,646.523987 
	C943.761902,633.645813 951.458008,623.782837 964.555237,623.827881 
	C983.845703,623.894226 1003.148071,624.542664 1022.416321,625.517944 
	C1033.555176,626.081726 1042.190552,617.158264 1039.759399,605.894165 
	C1036.528564,590.925171 1032.716309,576.082458 1029.233765,561.166809 
	C1028.099731,556.309937 1026.737305,551.435791 1026.312134,546.497925 
	C1025.267334,534.361267 1033.043579,525.598938 1045.095459,525.851196 
	C1051.671631,525.988892 1058.286011,527.413269 1064.756714,528.833374 
	C1078.413330,531.830444 1091.980225,535.234375 1105.596436,538.418396 
	C1118.169312,541.358459 1126.697144,533.872864 1126.152222,520.785278 
	C1125.404907,502.834137 1124.618408,484.875153 1124.420410,466.913239 
	C1124.214233,448.224548 1137.345947,439.703583 1154.583374,447.238770 
	C1171.059204,454.441132 1187.301270,462.177246 1203.673096,469.619629 
	C1215.100342,474.814362 1224.782349,469.830597 1226.998413,457.266235 
	C1230.119873,439.569092 1232.776001,421.790436 1235.773804,404.070801 
	C1238.904785,385.563171 1254.281860,379.106323 1269.734009,389.953705 
	C1284.182373,400.096375 1298.542847,410.379486 1312.625854,421.019318 
	C1318.248901,425.267487 1323.388794,426.332977 1330.053223,423.686462 
	C1334.606445,421.878357 1336.881348,419.120209 1338.450684,414.782288 
	C1344.228394,398.811218 1350.241943,382.925385 1356.181519,367.013000 
	C1357.112915,364.517761 1357.965698,361.976562 1359.117920,359.583191 
	C1365.271973,346.799957 1380.388916,343.639343 1390.752075,353.472717 
	C1399.681152,361.945129 1407.928833,371.139252 1416.409180,380.079376 
	C1421.448608,385.391785 1426.388184,390.800110 1431.313599,396.218994 
	C1438.468262,404.090515 1449.932861,403.494568 1455.632446,394.553741 
	C1464.584839,380.509979 1473.209717,366.257568 1481.989136,352.103394 
	C1483.569214,349.555847 1485.110352,346.972229 1486.866211,344.547791 
	C1495.758545,332.268372 1512.034424,332.139648 1520.396362,344.839020 
	C1531.018555,360.970734 1541.130737,377.451355 1551.003418,394.054718 
	C1553.737549,398.652832 1557.303101,400.524933 1562.077759,401.363281 
	C1567.815430,402.370758 1572.062500,400.672913 1576.125000,396.137817 
	C1588.561890,382.253937 1601.976807,369.228516 1614.108521,355.094299 
	C1624.217041,343.317230 1644.704712,346.530365 1649.205688,362.645630 
	C1650.008789,365.521240 1651.303467,368.258728 1652.356201,371.065582 
	C1657.736694,385.408630 1663.327759,399.678192 1668.381226,414.135620 
	C1670.354614,419.781555 1673.712769,422.734131 1679.344971,424.415558 
	C1684.290039,425.891846 1688.119751,425.471497 1692.329224,422.354309 
	C1706.247192,412.047791 1720.410400,402.072418 1734.486816,391.980011 
	C1736.381714,390.621490 1738.242432,389.192474 1740.246826,388.013550 
	C1753.230713,380.377411 1767.143066,385.943787 1770.351318,400.789856 
	C1773.440308,415.083221 1775.357178,429.630188 1777.776855,444.067749 
	C1778.602173,448.992462 1779.320435,453.936035 1780.210815,458.848694 
	C1782.036987,468.922760 1792.556519,474.380432 1802.088257,470.106628 
	C1816.978638,463.430359 1831.798950,456.597870 1846.676758,449.893127 
	C1850.316284,448.252930 1853.971069,446.546204 1857.777832,445.396332 
	C1870.338379,441.602386 1882.162964,449.568451 1882.151489,462.634155 
	C1882.133911,482.589508 1881.355957,502.552948 1880.488159,522.494995 
	C1880.062866,532.268677 1889.348755,541.193054 1899.060669,539.034363 
	C1916.284180,535.205811 1933.404907,530.916382 1950.606812,526.986816 
	C1954.142578,526.179077 1957.845825,525.752930 1961.471680,525.754456 
	C1973.878296,525.759583 1981.700806,533.616150 1980.418823,546.058838 
	C1979.435547,555.604248 1976.810303,564.994812 1974.699341,574.405823 
	C1972.367065,584.802612 1969.690186,595.122009 1967.343018,605.515686 
	C1964.711548,617.168335 1973.288574,626.138733 1985.025024,625.494690 
	C2004.287109,624.437500 2023.597412,623.835693 2042.886963,623.847290 
	C2056.642090,623.855591 2064.863281,635.546082 2060.318848,648.706360 
	C2056.637451,659.366821 2051.450195,669.511963 2046.842896,679.846436 
	C2043.181641,688.059265 2039.281738,696.166687 2035.679443,704.404724 
	C2031.590698,713.755249 2037.488037,724.263184 2047.552856,725.879944 
	C2064.968750,728.677429 2082.384277,731.480164 2099.795898,734.303955 
	C2101.435059,734.569763 2103.057617,734.958984 2104.670166,735.361877 
	C2120.413086,739.294983 2126.366211,753.461426 2117.236816,766.926636 
	C2106.773193,782.359558 2095.695312,797.387939 2084.524658,812.323059 
	C2080.739990,817.383179 2079.861816,821.995911 2081.953613,828.006836 
	C2083.655518,832.898438 2086.287598,835.721558 2091.115723,837.444885 
	C2106.797852,843.042358 2122.363525,848.967834 2137.965820,854.788086 
	C2140.773682,855.835449 2143.617920,856.827393 2146.319336,858.110413 
	C2159.084473,864.173218 2162.370361,879.467224 2152.625977,889.696289 
	C2144.135986,898.608459 2134.952881,906.864990 2125.990479,915.320618 
	C2120.424072,920.572510 2114.679199,925.635254 2109.048340,930.819519 
	C2101.918945,937.383606 2102.897217,949.272034 2111.301758,954.593018 
	C2125.936523,963.858459 2140.749512,972.842224 2155.481689,981.953857 
	C2157.464355,983.180176 2159.476562,984.373596 2161.365723,985.734497 
	C2173.589111,994.539124 2173.748047,1010.934021 2161.317627,1019.359802 
	C2151.398926,1026.083008 2140.998047,1032.094727 2130.810059,1038.420654 
	C2124.866943,1042.110840 2118.886719,1045.742188 2112.986084,1049.499023 
	C2102.169922,1056.385376 2101.359375,1067.113647 2110.604248,1075.612183 
	C2124.084473,1088.004761 2136.989258,1101.043823 2150.783691,1113.068359 
	C2163.239990,1123.926514 2158.585205,1143.408325 2143.503906,1148.328491 
	C2126.107178,1154.004028 2109.151367,1161.034668 2092.022461,1167.524902 
	C2080.787109,1171.782104 2077.346436,1182.345215 2084.196289,1192.016602 
	C2093.052246,1204.520142 2102.114258,1216.877563 2111.069336,1229.311035 
	C2113.210449,1232.283447 2115.429199,1235.214722 2117.356934,1238.323242 
	C2126.038086,1252.321533 2119.641846,1267.130981 2103.476074,1269.974487 
	C2085.122559,1273.202759 2066.731445,1276.255249 2048.292236,1278.939575 
	C2041.925293,1279.866455 2038.328125,1282.874268 2035.772705,1288.629761 
	C2033.656738,1293.395020 2033.941528,1297.346069 2036.094849,1301.909424 
	C2043.342041,1317.268433 2050.327393,1332.751831 2057.315918,1348.231445 
	C2058.817383,1351.557495 2060.351318,1354.972046 2061.115479,1358.508789 
	C2063.633545,1370.159790 2055.588623,1381.086060 2043.635620,1381.483276 
	C2033.354614,1381.824829 2023.034302,1380.961670 2012.730713,1380.654785 
	C2002.078979,1380.337524 1991.425659,1379.795044 1980.774536,1379.828979 
	C1972.477661,1379.855469 1965.081909,1389.615601 1966.956909,1397.930054 
	C1970.252441,1412.544556 1973.927490,1427.073120 1977.348145,1441.660156 
	C1978.487183,1446.517334 1979.685303,1451.402588 1980.250854,1456.344482 
	C1982.083130,1472.353882 1971.987427,1482.154053 1956.189575,1479.268799 
	C1944.738159,1477.177368 1933.457275,1474.144043 1922.113037,1471.477173 
	C1914.982544,1469.801025 1907.914307,1467.839600 1900.748779,1466.337158 
	C1888.404297,1463.748413 1880.240112,1472.282349 1880.934082,1484.919067 
	C1882.010986,1504.523438 1882.383545,1524.201904 1882.076782,1543.833740 
	C1881.884033,1556.169189 1868.928833,1563.682983 1856.302612,1559.061646 
	C1846.005615,1555.292603 1836.140747,1550.334717 1826.114746,1545.836060 
	C1818.215210,1542.291504 1810.367432,1538.631592 1802.486938,1535.044189 
	C1792.544189,1530.517578 1781.984009,1535.940308 1780.192139,1546.594116 
	C1777.376831,1563.333374 1774.670044,1580.090942 1771.926270,1596.842285 
	C1771.711060,1598.156738 1771.631714,1599.495361 1771.380615,1600.801758 
	C1767.711304,1619.889526 1752.449829,1625.875488 1736.560425,1614.479614 
	C1722.213989,1604.190308 1707.915405,1593.832886 1693.488892,1583.656860 
	C1683.174683,1576.381592 1672.776733,1579.622803 1668.289551,1591.420288 
	C1661.895874,1608.230713 1654.833984,1624.843994 1649.541260,1641.999268 
	C1644.716431,1657.638062 1624.758667,1662.278809 1613.771484,1649.512695 
	C1602.270996,1636.149902 1589.615234,1623.788574 1577.733398,1610.744629 
	C1567.985962,1600.043335 1557.501709,1600.767212 1549.706909,1613.230591 
	C1540.168335,1628.482300 1530.907104,1643.909668 1521.219849,1659.065308 
	C1514.166382,1670.100098 1501.575684,1672.986450 1491.987427,1665.775391 
	C1488.904785,1663.457153 1486.500610,1659.986938 1484.398926,1656.656860 
	C1474.976196,1641.726807 1465.559937,1626.783569 1456.604736,1611.572266 
	C1453.310425,1605.976685 1449.034180,1603.822021 1442.844116,1603.640869 
	C1437.745239,1603.491577 1434.130493,1605.210083 1430.681152,1609.003418 
	C1417.916870,1623.041016 1404.998779,1636.948242 1391.804443,1650.581299 
	C1384.845215,1657.771851 1376.215210,1659.027710 1368.100220,1655.019165 
	C1362.663940,1652.333740 1359.800415,1647.586914 1357.762451,1642.107422 
	C1351.261475,1624.628174 1344.556274,1607.223877 1338.203247,1589.691528 
	C1336.580811,1585.213623 1334.055176,1582.873291 1329.508789,1581.175781 
	C1323.126831,1578.792969 1318.261597,1579.852051 1312.966187,1583.808105 
	C1298.824463,1594.373047 1284.451904,1604.634399 1270.036621,1614.826172 
	C1254.627808,1625.720581 1239.199219,1619.594238 1235.885376,1601.144287 
	C1232.708740,1583.457642 1229.745239,1565.722534 1227.234985,1547.931519 
	C1226.281250,1541.172241 1223.094116,1537.342285 1217.079346,1534.591797 
	C1212.689209,1532.584229 1209.118042,1532.692017 1204.841187,1534.713745 
	C1189.486694,1541.971069 1173.983276,1548.913818 1158.527344,1555.955811 
	C1156.104004,1557.059937 1153.701416,1558.274170 1151.174316,1559.074829 
	C1136.467285,1563.734741 1124.495972,1555.674438 1124.489258,1540.296265 
	C1124.481201,1522.004395 1125.291260,1503.703857 1126.094116,1485.422363 
	C1126.751099,1470.455933 1118.467773,1463.467285 1103.675781,1466.956421 
	C1086.825317,1470.930908 1070.005005,1475.049194 1053.089233,1478.727051 
	C1034.070190,1482.861816 1023.077576,1471.825195 1027.273560,1452.865356 
	C1031.086426,1435.637329 1035.298096,1418.497803 1039.315308,1401.314941 
	C1040.464355,1396.399902 1041.233398,1391.806152 1037.543945,1387.158569 
	C1033.268799,1381.773071 1028.751465,1379.217773 1021.478943,1379.693726 
	C1003.559387,1380.866943 985.579956,1381.387329 967.618164,1381.582642 
	C949.463501,1381.780151 940.946838,1368.936157 948.136475,1352.073730 
	C955.449097,1334.922729 963.484924,1318.079712 971.222900,1301.110474 
	C975.468811,1291.799438 970.312561,1281.488159 960.089233,1279.474976 
	C950.299377,1277.547363 940.431152,1276.017822 929.731262,1274.215576 
M1115.246826,1288.826904 
	C1115.468750,1289.928711 1115.690674,1291.030640 1116.520996,1293.325439 
	C1126.588745,1305.290527 1136.758423,1317.172241 1146.680176,1329.257080 
	C1151.427490,1335.039307 1156.485229,1336.602173 1164.139038,1334.789551 
	C1188.098633,1329.115356 1212.269287,1324.319214 1236.405762,1319.418091 
	C1240.220947,1318.643311 1244.394043,1318.428955 1248.211914,1319.075439 
	C1265.701172,1322.036499 1275.676880,1332.974243 1279.360229,1349.932007 
	C1285.012207,1375.952881 1290.887573,1401.935913 1295.834961,1428.092651 
	C1297.516479,1436.982544 1301.672241,1441.704102 1309.796265,1445.190430 
	C1370.880127,1471.405029 1434.751831,1484.381958 1501.020874,1485.460083 
	C1518.249023,1485.740479 1535.549805,1483.889771 1552.761719,1482.383423 
	C1602.273193,1478.050659 1649.596069,1465.078369 1695.357056,1445.888794 
	C1701.983154,1443.110229 1705.005127,1439.179321 1706.408203,1432.185425 
	C1711.972534,1404.449951 1717.995483,1376.802612 1724.187378,1349.198486 
	C1727.472046,1334.555298 1736.893677,1325.663940 1751.391724,1321.605469 
	C1759.578979,1319.313599 1767.254395,1321.256104 1775.022705,1322.898804 
	C1797.165771,1327.580811 1819.300537,1332.312988 1841.369385,1337.329712 
	C1847.844116,1338.801636 1852.697998,1337.863159 1857.152222,1332.473267 
	C1866.262451,1321.449707 1875.958130,1310.911987 1885.279663,1300.059814 
	C1887.981201,1296.914551 1890.230469,1293.380737 1893.925659,1288.333252 
	C1888.051636,1288.333252 1884.498657,1288.333374 1880.945679,1288.333252 
	C1819.630249,1288.331909 1758.314331,1288.184570 1696.999878,1288.428833 
	C1681.125366,1288.492188 1667.816650,1283.286255 1656.160156,1272.750244 
	C1633.913330,1252.641602 1619.988159,1227.876343 1613.804565,1198.618042 
	C1608.023438,1171.264648 1602.226318,1143.914307 1596.302246,1116.591675 
	C1592.259766,1097.947754 1584.224976,1081.312744 1570.147583,1068.124756 
	C1553.905640,1052.909058 1533.992676,1047.666870 1512.283569,1047.676392 
	C1476.627319,1047.691895 1440.971069,1047.656494 1405.314819,1047.710938 
	C1401.789062,1047.716309 1398.264160,1048.196533 1394.466553,1048.476440 
	C1394.466553,1077.998413 1394.466553,1106.452393 1394.466553,1135.701538 
	C1399.110474,1135.934204 1403.022217,1136.294067 1406.934448,1136.299927 
	C1438.591797,1136.347290 1470.249268,1136.323730 1501.906616,1136.336304 
	C1504.904297,1136.337524 1507.909790,1136.322632 1510.897949,1136.520996 
	C1515.230103,1136.808350 1517.556763,1139.141357 1517.570801,1143.597900 
	C1517.580322,1146.596436 1517.660889,1149.595093 1517.661499,1152.593628 
	C1517.668213,1191.582275 1517.764282,1230.571167 1517.618530,1269.559326 
	C1517.559204,1285.439453 1521.608521,1288.419067 1499.080811,1288.395142 
	C1376.450195,1288.264893 1253.819336,1288.330688 1131.188477,1288.343262 
	C1126.192017,1288.343872 1121.195679,1288.485962 1115.246826,1288.826904 
M1797.870850,1037.294434 
	C1808.017700,1058.149536 1813.617676,1080.410522 1817.789062,1103.051392 
	C1819.341675,1111.478638 1822.986816,1118.542603 1830.395630,1122.426880 
	C1838.557739,1126.706177 1847.162842,1130.886841 1856.073364,1132.861938 
	C1893.106323,1141.070679 1924.706421,1119.750488 1930.508057,1082.560791 
	C1932.393188,1070.476562 1931.878052,1058.009155 1932.324829,1045.712036 
	C1932.685059,1035.793213 1934.219116,1033.927368 1943.974609,1033.744141 
	C1955.303345,1033.531494 1966.639526,1033.743774 1977.970825,1033.623535 
	C1981.491455,1033.586182 1985.007080,1033.066895 1988.683472,1032.754883 
	C1989.096802,1029.457397 1989.620728,1027.188232 1989.628296,1024.917114 
	C1989.691772,1005.937195 1989.595581,986.956604 1989.681396,967.976868 
	C1989.734497,956.223267 1986.709473,948.221191 1973.726196,943.354492 
	C1948.510132,933.902283 1924.363037,921.634827 1899.563354,911.023682 
	C1882.096924,903.550293 1870.801147,882.039978 1879.852051,861.919373 
	C1881.217896,858.882935 1882.484497,855.802002 1883.831665,852.756958 
	C1896.902466,823.213318 1909.932373,793.651306 1923.104492,764.152893 
	C1925.284180,759.271545 1925.514038,755.284363 1922.544678,750.248352 
	C1898.324341,709.170471 1868.459717,672.647583 1833.561279,640.330261 
	C1796.897217,606.378052 1755.782227,578.810059 1710.526001,557.497314 
	C1675.404541,540.957336 1638.795532,528.955200 1600.807129,521.000366 
	C1596.018677,519.997681 1592.430786,520.613525 1589.129517,524.170959 
	C1587.329468,526.110840 1585.046021,527.592102 1583.128296,529.434082 
	C1564.873779,546.968933 1546.204590,564.102234 1528.552734,582.225708 
	C1513.059326,598.133240 1486.540039,598.360657 1471.764404,581.635620 
	C1454.581055,562.184875 1435.805786,544.146301 1417.936157,525.291199 
	C1414.057983,521.198975 1410.359741,519.776428 1404.755615,521.337341 
	C1391.293457,525.086975 1377.513916,527.736816 1364.137329,531.747253 
	C1280.232300,556.902649 1208.510620,601.872620 1148.287109,665.336121 
	C1146.870361,666.829102 1146.090576,668.926636 1144.072144,672.329895 
	C1150.328613,672.329895 1154.914795,672.329834 1159.500977,672.329834 
	C1320.489624,672.329956 1481.478516,672.401001 1642.466919,672.231567 
	C1660.576416,672.212524 1678.388184,673.777344 1695.881226,678.278442 
	C1749.375000,692.042847 1792.845825,720.061523 1821.587402,768.282898 
	C1834.520142,789.980652 1840.110718,814.048645 1839.379028,839.081360 
	C1838.619995,865.049500 1829.272339,888.370544 1813.730591,909.289673 
	C1796.823242,932.046387 1775.620483,950.065857 1752.557129,966.145691 
	C1748.829224,968.744812 1745.218018,971.511414 1740.455811,975.005554 
	C1763.319580,992.814209 1784.665283,1010.414795 1797.870850,1037.294434 
M1173.665283,1019.000122 
	C1173.665283,997.024597 1173.665161,975.049133 1173.665161,953.073608 
	C1173.665161,931.431091 1173.842773,909.786743 1173.615356,888.146667 
	C1173.386108,866.333984 1174.627686,844.469971 1172.776367,821.962280 
	C1150.676514,821.614197 1129.637695,821.306091 1107.502930,822.146179 
	C1108.787720,826.220825 1109.361694,828.760742 1110.371094,831.114075 
	C1114.173462,839.980286 1118.130981,848.779724 1122.005615,857.615112 
	C1131.528687,879.331543 1123.562134,900.144531 1101.997925,909.727722 
	C1077.373535,920.671021 1052.801270,931.738586 1028.026001,942.330627 
	C1021.289551,945.210632 1018.448486,949.229431 1018.163330,956.575134 
	C1017.274231,979.476746 1015.811096,1002.268433 1017.383545,1025.289429 
	C1019.636414,1058.271973 1024.420532,1090.710327 1032.768066,1122.650146 
	C1035.084595,1131.514160 1035.259644,1131.617432 1044.145996,1131.630249 
	C1084.101318,1131.687500 1124.056763,1131.674194 1164.011963,1131.606689 
	C1166.864014,1131.601929 1169.714844,1130.956909 1173.665283,1130.475708 
	C1173.665283,1093.443481 1173.665283,1057.221802 1173.665283,1019.000122 
M1393.667358,855.011597 
	C1393.667358,865.000854 1393.613770,874.990540 1393.682617,884.979309 
	C1393.750366,894.810059 1393.942261,904.639954 1394.088257,915.081421 
	C1399.092529,915.319885 1402.685669,915.637573 1406.279175,915.640259 
	C1450.897949,915.674255 1495.517212,915.779236 1540.134888,915.563660 
	C1549.078735,915.520508 1558.081299,914.658752 1566.940308,913.372314 
	C1577.850220,911.788147 1588.435059,908.676941 1597.885254,902.731445 
	C1606.539185,897.286865 1613.752563,890.521851 1615.973145,879.931519 
	C1619.432251,863.434448 1613.276367,850.391541 1600.454590,840.589233 
	C1586.910156,830.234558 1571.293335,824.476929 1554.125122,824.408936 
	C1504.512451,824.212402 1454.898560,824.323608 1405.285156,824.372742 
	C1401.750488,824.376221 1398.216309,824.856506 1393.667236,825.189331 
	C1393.667236,835.129150 1393.667236,844.073425 1393.667358,855.011597 
M1468.820923,472.159363 
	C1467.767456,474.233246 1466.603638,476.259155 1465.677612,478.388519 
	C1457.207886,497.864746 1466.116455,520.096130 1485.989990,529.170532 
	C1504.156494,537.465515 1527.196167,529.111938 1536.209961,510.962128 
	C1545.607300,492.040070 1538.516357,469.221466 1520.165894,459.333008 
	C1502.350708,449.733002 1483.302246,454.113373 1468.820923,472.159363 
M1758.951904,1396.581177 
	C1752.302856,1415.199341 1757.270996,1432.720337 1772.259033,1443.510498 
	C1785.860596,1453.302490 1804.919800,1452.802734 1818.713745,1442.292725 
	C1832.852539,1431.520142 1837.573975,1412.112061 1830.040894,1395.730347 
	C1822.283691,1378.861206 1804.154785,1369.639282 1786.692871,1373.659302 
	C1774.242554,1376.525146 1765.210938,1383.664917 1758.951904,1396.581177 
M1947.823730,824.739685 
	C1935.844971,836.873657 1931.167236,850.754028 1937.365967,867.390198 
	C1945.265503,888.590942 1968.604248,897.961975 1988.925781,889.568115 
	C2009.365356,881.125427 2018.185181,856.825256 2008.713379,837.033875 
	C1999.605591,818.003296 1972.814575,804.998230 1947.823730,824.739685 
M996.997864,873.668640 
	C1011.123291,895.016602 1042.686890,896.259521 1058.827881,876.765442 
	C1069.252563,864.175171 1071.163208,846.482910 1062.602173,832.202515 
	C1053.794800,817.511169 1036.845459,810.178406 1020.988525,813.727051 
	C993.617920,819.852356 982.008789,851.232239 996.997864,873.668640 
M1211.908325,1371.126953 
	C1190.192993,1368.418701 1167.530151,1386.734497 1169.497681,1412.519531 
	C1170.697998,1428.250000 1181.360596,1442.361694 1196.795166,1447.079956 
	C1211.718018,1451.641846 1228.541992,1446.298584 1237.925415,1433.948853 
	C1256.705688,1409.231201 1241.397705,1375.710938 1211.908325,1371.126953 
z"/>
<path fill="#47704C" opacity="1.000000" stroke="none" 
	d="
M1797.544434,1036.626587 
	C1784.665283,1010.414795 1763.319580,992.814209 1740.455811,975.005554 
	C1745.218018,971.511414 1748.829224,968.744812 1752.557129,966.145691 
	C1775.620483,950.065857 1796.823242,932.046387 1813.730591,909.289673 
	C1829.272339,888.370544 1838.619995,865.049500 1839.379028,839.081360 
	C1840.110718,814.048645 1834.520142,789.980652 1821.587402,768.282898 
	C1792.845825,720.061523 1749.375000,692.042847 1695.881226,678.278442 
	C1678.388184,673.777344 1660.576416,672.212524 1642.466919,672.231567 
	C1481.478516,672.401001 1320.489624,672.329956 1159.500977,672.329834 
	C1154.914795,672.329834 1150.328613,672.329895 1144.072144,672.329895 
	C1146.090576,668.926636 1146.870361,666.829102 1148.287109,665.336121 
	C1208.510620,601.872620 1280.232300,556.902649 1364.137329,531.747253 
	C1377.513916,527.736816 1391.293457,525.086975 1404.755615,521.337341 
	C1410.359741,519.776428 1414.057983,521.198975 1417.936157,525.291199 
	C1435.805786,544.146301 1454.581055,562.184875 1471.764404,581.635620 
	C1486.540039,598.360657 1513.059326,598.133240 1528.552734,582.225708 
	C1546.204590,564.102234 1564.873779,546.968933 1583.128296,529.434082 
	C1585.046021,527.592102 1587.329468,526.110840 1589.129517,524.170959 
	C1592.430786,520.613525 1596.018677,519.997681 1600.807129,521.000366 
	C1638.795532,528.955200 1675.404541,540.957336 1710.526001,557.497314 
	C1755.782227,578.810059 1796.897217,606.378052 1833.561279,640.330261 
	C1868.459717,672.647583 1898.324341,709.170471 1922.544678,750.248352 
	C1925.514038,755.284363 1925.284180,759.271545 1923.104492,764.152893 
	C1909.932373,793.651306 1896.902466,823.213318 1883.831665,852.756958 
	C1882.484497,855.802002 1881.217896,858.882935 1879.852051,861.919373 
	C1870.801147,882.039978 1882.096924,903.550293 1899.563354,911.023682 
	C1924.363037,921.634827 1948.510132,933.902283 1973.726196,943.354492 
	C1986.709473,948.221191 1989.734497,956.223267 1989.681396,967.976868 
	C1989.595581,986.956604 1989.691772,1005.937195 1989.628296,1024.917114 
	C1989.620728,1027.188232 1989.096802,1029.457397 1988.683472,1032.754883 
	C1985.007080,1033.066895 1981.491455,1033.586182 1977.970825,1033.623535 
	C1966.639526,1033.743774 1955.303345,1033.531494 1943.974609,1033.744141 
	C1934.219116,1033.927368 1932.685059,1035.793213 1932.324829,1045.712036 
	C1931.878052,1058.009155 1932.393188,1070.476562 1930.508057,1082.560791 
	C1924.706421,1119.750488 1893.106323,1141.070679 1856.073364,1132.861938 
	C1847.162842,1130.886841 1838.557739,1126.706177 1830.395630,1122.426880 
	C1822.986816,1118.542603 1819.341675,1111.478638 1817.789062,1103.051392 
	C1813.617676,1080.410522 1808.017700,1058.149536 1797.544434,1036.626587 
z"/>
<path fill="#47704C" opacity="1.000000" stroke="none" 
	d="
M1116.199219,1288.562134 
	C1121.195679,1288.485962 1126.192017,1288.343872 1131.188477,1288.343262 
	C1253.819336,1288.330688 1376.450195,1288.264893 1499.080811,1288.395142 
	C1521.608521,1288.419067 1517.559204,1285.439453 1517.618530,1269.559326 
	C1517.764282,1230.571167 1517.668213,1191.582275 1517.661499,1152.593628 
	C1517.660889,1149.595093 1517.580322,1146.596436 1517.570801,1143.597900 
	C1517.556763,1139.141357 1515.230103,1136.808350 1510.897949,1136.520996 
	C1507.909790,1136.322632 1504.904297,1136.337524 1501.906616,1136.336304 
	C1470.249268,1136.323730 1438.591797,1136.347290 1406.934448,1136.299927 
	C1403.022217,1136.294067 1399.110474,1135.934204 1394.466553,1135.701538 
	C1394.466553,1106.452393 1394.466553,1077.998413 1394.466553,1048.476440 
	C1398.264160,1048.196533 1401.789062,1047.716309 1405.314819,1047.710938 
	C1440.971069,1047.656494 1476.627319,1047.691895 1512.283569,1047.676392 
	C1533.992676,1047.666870 1553.905640,1052.909058 1570.147583,1068.124756 
	C1584.224976,1081.312744 1592.259766,1097.947754 1596.302246,1116.591675 
	C1602.226318,1143.914307 1608.023438,1171.264648 1613.804565,1198.618042 
	C1619.988159,1227.876343 1633.913330,1252.641602 1656.160156,1272.750244 
	C1667.816650,1283.286255 1681.125366,1288.492188 1696.999878,1288.428833 
	C1758.314331,1288.184570 1819.630249,1288.331909 1880.945679,1288.333252 
	C1884.498657,1288.333374 1888.051636,1288.333252 1893.925659,1288.333252 
	C1890.230469,1293.380737 1887.981201,1296.914551 1885.279663,1300.059814 
	C1875.958130,1310.911987 1866.262451,1321.449707 1857.152222,1332.473267 
	C1852.697998,1337.863159 1847.844116,1338.801636 1841.369385,1337.329712 
	C1819.300537,1332.312988 1797.165771,1327.580811 1775.022705,1322.898804 
	C1767.254395,1321.256104 1759.578979,1319.313599 1751.391724,1321.605469 
	C1736.893677,1325.663940 1727.472046,1334.555298 1724.187378,1349.198486 
	C1717.995483,1376.802612 1711.972534,1404.449951 1706.408203,1432.185425 
	C1705.005127,1439.179321 1701.983154,1443.110229 1695.357056,1445.888794 
	C1649.596069,1465.078369 1602.273193,1478.050659 1552.761719,1482.383423 
	C1535.549805,1483.889771 1518.249023,1485.740479 1501.020874,1485.460083 
	C1434.751831,1484.381958 1370.880127,1471.405029 1309.796265,1445.190430 
	C1301.672241,1441.704102 1297.516479,1436.982544 1295.834961,1428.092651 
	C1290.887573,1401.935913 1285.012207,1375.952881 1279.360229,1349.932007 
	C1275.676880,1332.974243 1265.701172,1322.036499 1248.211914,1319.075439 
	C1244.394043,1318.428955 1240.220947,1318.643311 1236.405762,1319.418091 
	C1212.269287,1324.319214 1188.098633,1329.115356 1164.139038,1334.789551 
	C1156.485229,1336.602173 1151.427490,1335.039307 1146.680176,1329.257080 
	C1136.758423,1317.172241 1126.588745,1305.290527 1116.277100,1292.134766 
	C1116.088623,1290.150146 1116.143921,1289.356201 1116.199219,1288.562134 
z"/>
<path fill="#47704C" opacity="1.000000" stroke="none" 
	d="
M1173.665283,1020.000122 
	C1173.665283,1057.221802 1173.665283,1093.443481 1173.665283,1130.475708 
	C1169.714844,1130.956909 1166.864014,1131.601929 1164.011963,1131.606689 
	C1124.056763,1131.674194 1084.101318,1131.687500 1044.145996,1131.630249 
	C1035.259644,1131.617432 1035.084595,1131.514160 1032.768066,1122.650146 
	C1024.420532,1090.710327 1019.636414,1058.271973 1017.383545,1025.289429 
	C1015.811096,1002.268433 1017.274231,979.476746 1018.163330,956.575134 
	C1018.448486,949.229431 1021.289551,945.210632 1028.026001,942.330627 
	C1052.801270,931.738586 1077.373535,920.671021 1101.997925,909.727722 
	C1123.562134,900.144531 1131.528687,879.331543 1122.005615,857.615112 
	C1118.130981,848.779724 1114.173462,839.980286 1110.371094,831.114075 
	C1109.361694,828.760742 1108.787720,826.220825 1107.502930,822.146179 
	C1129.637695,821.306091 1150.676514,821.614197 1172.776367,821.962280 
	C1174.627686,844.469971 1173.386108,866.333984 1173.615356,888.146667 
	C1173.842773,909.786743 1173.665161,931.431091 1173.665161,953.073608 
	C1173.665161,975.049133 1173.665283,997.024597 1173.665283,1020.000122 
z"/>
<path fill="#47704C" opacity="1.000000" stroke="none" 
	d="
M1393.667236,854.014648 
	C1393.667236,844.073425 1393.667236,835.129150 1393.667236,825.189331 
	C1398.216309,824.856506 1401.750488,824.376221 1405.285156,824.372742 
	C1454.898560,824.323608 1504.512451,824.212402 1554.125122,824.408936 
	C1571.293335,824.476929 1586.910156,830.234558 1600.454590,840.589233 
	C1613.276367,850.391541 1619.432251,863.434448 1615.973145,879.931519 
	C1613.752563,890.521851 1606.539185,897.286865 1597.885254,902.731445 
	C1588.435059,908.676941 1577.850220,911.788147 1566.940308,913.372314 
	C1558.081299,914.658752 1549.078735,915.520508 1540.134888,915.563660 
	C1495.517212,915.779236 1450.897949,915.674255 1406.279175,915.640259 
	C1402.685669,915.637573 1399.092529,915.319885 1394.088257,915.081421 
	C1393.942261,904.639954 1393.750366,894.810059 1393.682617,884.979309 
	C1393.613770,874.990540 1393.667358,865.000854 1393.667236,854.014648 
z"/>
<path fill="#466E4B" opacity="1.000000" stroke="none" 
	d="
M1469.241699,471.553101 
	C1483.302246,454.113373 1502.350708,449.733002 1520.165894,459.333008 
	C1538.516357,469.221466 1545.607300,492.040070 1536.209961,510.962128 
	C1527.196167,529.111938 1504.156494,537.465515 1485.989990,529.170532 
	C1466.116455,520.096130 1457.207886,497.864746 1465.677612,478.388519 
	C1466.603638,476.259155 1467.767456,474.233246 1469.241699,471.553101 
z"/>
<path fill="#466F4B" opacity="1.000000" stroke="none" 
	d="
M1759.307861,1395.884766 
	C1765.210938,1383.664917 1774.242554,1376.525146 1786.692871,1373.659302 
	C1804.154785,1369.639282 1822.283691,1378.861206 1830.040894,1395.730347 
	C1837.573975,1412.112061 1832.852539,1431.520142 1818.713745,1442.292725 
	C1804.919800,1452.802734 1785.860596,1453.302490 1772.259033,1443.510498 
	C1757.270996,1432.720337 1752.302856,1415.199341 1759.307861,1395.884766 
z"/>
<path fill="#466F4B" opacity="1.000000" stroke="none" 
	d="
M1948.361084,824.253845 
	C1972.814575,804.998230 1999.605591,818.003296 2008.713379,837.033875 
	C2018.185181,856.825256 2009.365356,881.125427 1988.925781,889.568115 
	C1968.604248,897.961975 1945.265503,888.590942 1937.365967,867.390198 
	C1931.167236,850.754028 1935.844971,836.873657 1948.361084,824.253845 
z"/>
<path fill="#466F4B" opacity="1.000000" stroke="none" 
	d="
M996.601440,873.039001 
	C982.008789,851.232239 993.617920,819.852356 1020.988525,813.727051 
	C1036.845459,810.178406 1053.794800,817.511169 1062.602173,832.202515 
	C1071.163208,846.482910 1069.252563,864.175171 1058.827881,876.765442 
	C1042.686890,896.259521 1011.123291,895.016602 996.601440,873.039001 
z"/>
<path fill="#466F4B" opacity="1.000000" stroke="none" 
	d="
M1212.681519,1371.323730 
	C1241.397705,1375.710938 1256.705688,1409.231201 1237.925415,1433.948853 
	C1228.541992,1446.298584 1211.718018,1451.641846 1196.795166,1447.079956 
	C1181.360596,1442.361694 1170.697998,1428.250000 1169.497681,1412.519531 
	C1167.530151,1386.734497 1190.192993,1368.418701 1212.681519,1371.323730 
z"/>
<path fill="#355439" opacity="1.000000" stroke="none" 
	d="
M1115.723022,1288.694580 
	C1116.143921,1289.356201 1116.088623,1290.150146 1115.972900,1291.538330 
	C1115.690674,1291.030640 1115.468750,1289.928711 1115.723022,1288.694580 
z"/>
</svg>