<svg version="1.1" id="Layer_1" xmlns="http://www.w3.org/2000/svg" xmlns:xlink="http://www.w3.org/1999/xlink" x="0px" y="0px"
	 width="100%" viewBox="0 0 3000 2000" enable-background="new 0 0 3000 2000" xml:space="preserve">
<path fill="#47704C" opacity="1.000000" stroke="none" 
	d="
M1584.000000,2002.000000 
	C1056.000000,2002.000000 529.000000,2002.000000 2.000000,2002.000000 
	C2.000000,1335.333374 2.000000,668.666687 2.000000,2.000000 
	C1002.000000,2.000000 2002.000000,2.000000 3002.000000,2.000000 
	C3002.000000,668.666687 3002.000000,1335.333374 3002.000000,2002.000000 
	C2529.666748,2002.000000 2057.333252,2002.000000 1584.000000,2002.000000 
M1719.869873,1667.670776 
	C1725.885132,1657.301880 1732.015259,1646.997681 1737.896973,1636.553711 
	C1775.324707,1570.094238 1812.685425,1503.597168 1850.092529,1437.126221 
	C1876.719116,1389.811890 1903.339966,1342.494141 1930.098267,1295.254272 
	C1932.832153,1290.427734 1933.201782,1286.561157 1930.189453,1281.485229 
	C1920.684570,1265.468140 1911.779419,1249.094971 1902.652344,1232.854004 
	C1874.095581,1182.038818 1845.567749,1131.207397 1816.983154,1080.407959 
	C1785.785889,1024.965454 1754.546875,969.546387 1723.276978,914.144714 
	C1722.061890,911.992004 1720.337769,910.126465 1718.589111,907.775085 
	C1717.270630,909.159119 1716.461792,909.729492 1716.023682,910.508423 
	C1697.574585,943.314270 1679.170532,976.145508 1660.736328,1008.959839 
	C1610.816772,1097.820801 1560.895996,1186.681152 1510.948120,1275.526245 
	C1504.108276,1287.692627 1504.036011,1287.662354 1490.244629,1287.662598 
	C1358.252075,1287.665527 1226.259399,1287.664429 1094.266846,1287.666138 
	C1090.600464,1287.666260 1086.925293,1287.538818 1083.271118,1287.755615 
	C1081.167725,1287.880371 1079.098267,1288.578125 1076.396240,1289.147949 
	C1077.816772,1292.061401 1078.715210,1294.161987 1079.825806,1296.143677 
	C1105.881226,1342.633667 1131.926758,1389.129395 1158.041138,1435.586304 
	C1199.823364,1509.916016 1241.778931,1584.148804 1283.282104,1658.633789 
	C1287.712036,1666.584229 1292.383179,1669.915771 1301.796143,1669.893188 
	C1436.787842,1669.569458 1571.780518,1669.680298 1706.772949,1669.633179 
	C1710.731812,1669.631836 1714.690430,1669.050171 1719.869873,1667.670776 
M1097.129639,674.135254 
	C1090.414062,686.025085 1083.817993,697.984802 1076.925049,709.770874 
	C1074.134155,714.542847 1073.873779,718.523438 1076.816162,723.602478 
	C1089.836426,746.077209 1102.403198,768.814758 1115.136230,791.455994 
	C1147.458862,848.930847 1179.780518,906.406250 1212.106445,963.879211 
	C1235.444458,1005.372437 1258.776001,1046.869263 1282.159424,1088.336914 
	C1283.690063,1091.051270 1285.639160,1093.529663 1288.017944,1097.038452 
	C1290.451416,1093.672729 1292.181152,1091.707520 1293.439575,1089.476562 
	C1320.272949,1041.905762 1347.060791,994.309387 1373.842163,946.709290 
	C1414.340210,874.729370 1455.067383,802.876160 1495.045898,730.608826 
	C1500.729126,720.335632 1507.034912,717.366272 1518.383545,717.402832 
	C1649.688843,717.826294 1780.995972,717.673523 1912.302612,717.671326 
	C1915.968384,717.671265 1919.647339,717.824890 1923.295044,717.561218 
	C1925.407227,717.408569 1927.469604,716.563965 1930.284302,715.844116 
	C1928.637207,712.320496 1927.554688,709.556458 1926.114990,706.992859 
	C1908.998291,676.512878 1891.804321,646.076477 1874.676758,615.602600 
	C1823.767822,525.023926 1772.819824,434.467133 1722.117798,343.772888 
	C1718.730347,337.713531 1714.879272,335.532471 1708.034424,335.541168 
	C1571.062378,335.714661 1434.090210,335.723969 1297.118408,335.523682 
	C1289.744019,335.512909 1285.848389,338.219238 1282.356689,344.483124 
	C1249.439819,403.532684 1216.238403,462.423584 1183.093994,521.346191 
	C1154.684937,571.850586 1126.243164,622.336670 1097.129639,674.135254 
z"/>
<path fill="#000000" opacity="1.000000" stroke="none" 
	d="
M1719.259521,1668.204834 
	C1714.690430,1669.050171 1710.731812,1669.631836 1706.772949,1669.633179 
	C1571.780518,1669.680298 1436.787842,1669.569458 1301.796143,1669.893188 
	C1292.383179,1669.915771 1287.712036,1666.584229 1283.282104,1658.633789 
	C1241.778931,1584.148804 1199.823364,1509.916016 1158.041138,1435.586304 
	C1131.926758,1389.129395 1105.881226,1342.633667 1079.825806,1296.143677 
	C1078.715210,1294.161987 1077.816772,1292.061401 1076.396240,1289.147949 
	C1079.098267,1288.578125 1081.167725,1287.880371 1083.271118,1287.755615 
	C1086.925293,1287.538818 1090.600464,1287.666260 1094.266846,1287.666138 
	C1226.259399,1287.664429 1358.252075,1287.665527 1490.244629,1287.662598 
	C1504.036011,1287.662354 1504.108276,1287.692627 1510.948120,1275.526245 
	C1560.895996,1186.681152 1610.816772,1097.820801 1660.736328,1008.959839 
	C1679.170532,976.145508 1697.574585,943.314270 1716.023682,910.508423 
	C1716.461792,909.729492 1717.270630,909.159119 1718.589111,907.775085 
	C1720.337769,910.126465 1722.061890,911.992004 1723.276978,914.144714 
	C1754.546875,969.546387 1785.785889,1024.965454 1816.983154,1080.407959 
	C1845.567749,1131.207397 1874.095581,1182.038818 1902.652344,1232.854004 
	C1911.779419,1249.094971 1920.684570,1265.468140 1930.189453,1281.485229 
	C1933.201782,1286.561157 1932.832153,1290.427734 1930.098267,1295.254272 
	C1903.339966,1342.494141 1876.719116,1389.811890 1850.092529,1437.126221 
	C1812.685425,1503.597168 1775.324707,1570.094238 1737.896973,1636.553711 
	C1732.015259,1646.997681 1725.885132,1657.301880 1719.259521,1668.204834 
z"/>
<path fill="#000000" opacity="1.000000" stroke="none" 
	d="
M1097.472656,673.483032 
	C1126.243164,622.336670 1154.684937,571.850586 1183.093994,521.346191 
	C1216.238403,462.423584 1249.439819,403.532684 1282.356689,344.483124 
	C1285.848389,338.219238 1289.744019,335.512909 1297.118408,335.523682 
	C1434.090210,335.723969 1571.062378,335.714661 1708.034424,335.541168 
	C1714.879272,335.532471 1718.730347,337.713531 1722.117798,343.772888 
	C1772.819824,434.467133 1823.767822,525.023926 1874.676758,615.602600 
	C1891.804321,646.076477 1908.998291,676.512878 1926.114990,706.992859 
	C1927.554688,709.556458 1928.637207,712.320496 1930.284302,715.844116 
	C1927.469604,716.563965 1925.407227,717.408569 1923.295044,717.561218 
	C1919.647339,717.824890 1915.968384,717.671265 1912.302612,717.671326 
	C1780.995972,717.673523 1649.688843,717.826294 1518.383545,717.402832 
	C1507.034912,717.366272 1500.729126,720.335632 1495.045898,730.608826 
	C1455.067383,802.876160 1414.340210,874.729370 1373.842163,946.709290 
	C1347.060791,994.309387 1320.272949,1041.905762 1293.439575,1089.476562 
	C1292.181152,1091.707520 1290.451416,1093.672729 1288.017944,1097.038452 
	C1285.639160,1093.529663 1283.690063,1091.051270 1282.159424,1088.336914 
	C1258.776001,1046.869263 1235.444458,1005.372437 1212.106445,963.879211 
	C1179.780518,906.406250 1147.458862,848.930847 1115.136230,791.455994 
	C1102.403198,768.814758 1089.836426,746.077209 1076.816162,723.602478 
	C1073.873779,718.523438 1074.134155,714.542847 1076.925049,709.770874 
	C1083.817993,697.984802 1090.414062,686.025085 1097.472656,673.483032 
z"/>
</svg>